<svg version="1.2" xmlns="http://www.w3.org/2000/svg" viewBox="0 0 153 92" width="153" height="92">
	<title>Path 360</title>
	<defs>
		<clipPath clipPathUnits="userSpaceOnUse" id="cp1">
			<path d="m3189.89-6499.63l1.03 8513.41-3831.78 0.47-1.04-8513.41z"/>
		</clipPath>
	</defs>
	<style>
		.s0 { fill: none;stroke: #0030ff;stroke-width: 3.3 } 
	</style>
	<g id="Clip-Path" clip-path="url(#cp1)">
		<g>
			<path fill-rule="evenodd" class="s0" d="m64.2 47.3l-6.3-4.5-5 3.8c-0.3 0.3-0.8 0.3-1.1 0.1l-7.5-5.2-0.7-0.5 18.5-12.4 8.7 6.6m71.4 0v44.5h-78v-17h0.1v-0.1h0.5l-0.6-0.1v-15.2l8.3 5.9v11.7c2.8 0 5 2.2 5 4.9h51.5c0-2.7 2.1-4.9 4.9-4.9v-16.5c-2.8 0-4.9-2.2-4.9-4.9h-47.5l-10.7-8.3zm-78.1 27.5h-17l-4.2-3.8 21.3 3.7h-0.1zm-38.3-6.8v3.3h-15.8v-49.2h15.8v4.1h41.8l27.5 21.1-69.3-20.9v41.5h-0.5zm0-41.7h-0.4l0.4 0.1zm0 41.7h13.8l3.3 3zm55.6-12.3l5.7 4.3c0.2 0.2 0.3 0.5 0.3 0.8 0.1 0.3-0.1 0.5-0.3 0.6l-8.5 7.5c-0.3 0.3-0.8 0.3-1.2 0l-4.9-3.5zm21.7 21.4c-4.1 0-7.4-3.7-7.4-8.2 0-4.6 3.3-8.3 7.4-8.3 4.2 0 7.5 3.7 7.5 8.3 0 4.5-3.3 8.2-7.5 8.2zm339-52.9h138.8v67.7h-138.8zm123.8 47.3v-27.1c-4.6 0-8.4-3.8-8.4-8.6l-92.1 0.1v0.1c0 4.6-3.7 8.4-8.4 8.4v27.1c4.7 0 8.4 3.9 8.4 8.5h92.1c0-4.7 3.8-8.5 8.4-8.5zm-54.5 0.2c-7.4 0-13.5-6.2-13.5-13.8 0-7.6 6-13.7 13.5-13.7 7.5 0 13.5 6.1 13.5 13.7 0 7.6-6 13.8-13.5 13.8zm-452 827.2l-24.7-6.8c6.7-4.2 15.4-5.1 22.9-2.5q2.6 0.9 5.6 2.4c0 0 5.4 2.2 11.5-0.4 1.6-0.6 3.6-0.7 5.2 0.1q0.5 0.3 1 0.6l-21.5 6.6 2.3 0.6h4.4c4.3 0 8.5-1.1 12.1-3.1l3.2-1.9c0.6-0.3 0.8-0.9 0.4-1.4q-0.4-0.4-0.7-0.7l13.4-4.9q0.8-0.3 1.5-0.5c4.4-1 6.6 0.5 7.6 1.5 0.4 0.5 0.2 1.1-0.4 1.4l-27 13.2c-4.1 1.9-8.8 2.7-13.4 2.5-17.7-0.8-28.1 0.9-28.1 0.9zm-24.7 7.5v4.2h-9.9v5.8h-14.8v-31.3h14.8v3.8h9.9c0 0 0 17.5 0 17.5zm46.2-14.1h0.1q0 0 0 0.1-0.1-0.1-0.1-0.1zm3.8-31.3c-3.9 0-7.1-3.2-7.1-7.2 0-4 3.2-7.2 7.1-7.2 4 0 7.2 3.2 7.2 7.2 0 4-3.2 7.2-7.2 7.2zm-7.2 16.9c-4 0-7.2-3.3-7.2-7.3 0-4 3.2-7.2 7.2-7.2 4 0 7.2 3.2 7.2 7.2 0 4-3.2 7.3-7.2 7.3zm-14.5-14.5c-4 0-7.2-3.2-7.2-7.2 0-4 3.2-7.2 7.2-7.2 4 0 7.3 3.2 7.3 7.2 0 4-3.3 7.2-7.3 7.2z"/>
		</g>
	</g>
</svg>