<svg version="1.2" xmlns="http://www.w3.org/2000/svg" viewBox="0 0 114 101" width="114" height="101"><defs><clipPath clipPathUnits="userSpaceOnUse" id="cp1"><path d="m-1510-6536h3840v8555h-3840z"/></clipPath></defs><style>.a{fill:none;stroke:#0030ff;stroke-miterlimit:10;stroke-width:3.3}</style><g clip-path="url(#cp1)"><path fill-rule="evenodd" class="a" d="m108.9 95.1h-19.2v-67.6h19.2zm-30.4 0h-19.2v-47.9h19.2zm-30.5 0h-19.1v-36.2h19.1zm38-89.4l5.7-0.5 0.6 5.1m-20.6 19l20-24.1m-18.2 27.3c0 2.2-2 4-4.5 4-2.5 0-4.5-1.8-4.5-4 0-1.1 0.6-2.2 1.4-2.9 0.8-0.7 1.9-1.1 3.1-1.1 2.5 0 4.5 1.8 4.5 4zm-17.6-12.2l10 9.3m-8.7-12.2c0 1.1-0.5 2.1-1.3 2.9-0.8 0.7-1.9 1.1-3.1 1.1-0.9 0-1.7-0.2-2.4-0.6-1.2-0.7-2.1-2-2.1-3.4 0-2.2 2-4 4.5-4 2.4 0 4.4 1.8 4.4 4zm-21.9 25.2l15.1-21.8m-15.1 21.8c1.3 0.7 2.1 2 2.1 3.4 0 2.2-2 4-4.5 4-2.4 0-4.4-1.8-4.4-4q0-0.7 0.3-1.4c0.6-1.5 2.2-2.6 4.1-2.6 0.9 0 1.7 0.2 2.4 0.6zm-21.6-3.2l15.1 5.2m-14.8-6.6q0 0.7-0.3 1.4c-0.7 1.5-2.3 2.6-4.2 2.6-2.5 0-4.5-1.8-4.5-4 0-2.2 2-4 4.5-4 2.5 0 4.5 1.8 4.5 4z"/></g></svg>