<svg version="1.2" xmlns="http://www.w3.org/2000/svg" viewBox="0 0 95 96" width="95" height="96"><defs><clipPath clipPathUnits="userSpaceOnUse" id="cp1"><path d="m-1509-7385h3840v8555h-3840z"/></clipPath></defs><style>.a{fill:none;stroke:#0030ff;stroke-miterlimit:8;stroke-width:3.3}</style><g clip-path="url(#cp1)"><path fill-rule="evenodd" class="a" d="m82.5 4.1c-11.4 2.4-29.2 4.7-29.2 4.7l7.6 6.8c-10.2 15.5-34.6 25.8-49 30.1l2.4 4.2c32-5.5 52.1-22.8 54.5-24.8 2.3 2 7.3 8 7.3 8 0 0 5.8-18.7 6.4-29zm-68 87v-25.2h15.1v25.2m10.1 0v-36.6h15.1v36.6m7.6 0v-48.1h17.6v48.1m-75.6 0h85.7"/></g></svg>