<svg version="1.2" xmlns="http://www.w3.org/2000/svg" viewBox="0 0 168 102" width="168" height="102"><defs><clipPath clipPathUnits="userSpaceOnUse" id="cp1"><path d="m-623-5397h3840v8555h-3840z"/></clipPath></defs><style>.a{fill:none;stroke:#ff5070;stroke-miterlimit:8;stroke-width:2.3}</style><g clip-path="url(#cp1)"><path fill-rule="evenodd" class="a" d="m71.3 53.4v34.1h81.8v-46.7h-75m11.3 8.6h49.8c0 2.9 2.3 5.2 5.2 5.2v17.4c-2.9 0-5.2 2.3-5.2 5.2h-54c0-2.9-2.3-5.2-5.2-5.2v-12.3m-11-26l26.3 20.3c0.2 0.2 0.4 0.5 0.4 0.8 0 0.3-0.1 0.6-0.4 0.8l-8.8 7.8c-0.4 0.3-0.9 0.3-1.3 0l-20.5-14.7-5.2 4c-0.4 0.3-0.9 0.3-1.2 0.1l-7.9-5.5-0.6-0.4m78.9 16.4h3.5m-27.8 0c0-4.8 3.5-8.7 7.8-8.7 4.3 0 7.8 3.9 7.8 8.7 0 4.8-3.5 8.7-7.8 8.7-4.3 0-7.8-3.9-7.8-8.7zm-90-49.2h16.7v51.9h-16.7zm57.6 55.4h-18.7l-7.8-7.1h-14.9m61.6 0.8h3.5m-65.1-44.6h44.3l28.8 22.1"/></g></svg>