<svg version="1.2" xmlns="http://www.w3.org/2000/svg" viewBox="0 0 144 80" width="144" height="80"><defs><clipPath clipPathUnits="userSpaceOnUse" id="cp1"><path d="m-1080-7485h3840v8555h-3840z"/></clipPath></defs><style>.a{fill:none;stroke:#0030ff;stroke-miterlimit:8;stroke-width:3.3}</style><g clip-path="url(#cp1)"><path fill-rule="evenodd" class="a" d="m128.9 6l8.3-0.8 0.9 7.4m-30.8 28.7l29.9-36.1m-27.6 41.1c0 3.6-2.9 6.5-6.5 6.5-3.6 0-6.5-2.9-6.5-6.5 0-1.9 0.7-3.5 2-4.7 1.1-1.1 2.7-1.8 4.5-1.8 3.6 0 6.5 2.9 6.5 6.5zm-26.6-17.9l14.9 13.9m-46.3 19.5l22.9-32.4m-56.1 28.2l23.4 7.5m43.1-41.1c0 3.5-3 6.4-6.6 6.4-3.7 0-6.7-2.9-6.7-6.4 0-1.8 0.8-3.5 2-4.6 1.2-1.1 2.9-1.8 4.7-1.8 3.6 0 6.6 2.8 6.6 6.4zm-66.5 31.8c0 3.5-2.8 6.4-6.4 6.4-3.5 0-6.4-2.9-6.4-6.4 0-1.8 0.8-3.5 2-4.6 1.2-1.1 2.7-1.8 4.4-1.8 3.6 0 6.4 2.8 6.4 6.4zm35.9 11.7c0 3.7-2.9 6.6-6.6 6.6-3.6 0-6.6-2.9-6.6-6.6 0-1.8 0.8-3.5 2-4.7 1.2-1.2 2.8-1.9 4.6-1.9 3.7 0 6.6 3 6.6 6.6z"/></g></svg>