<svg version="1.2" xmlns="http://www.w3.org/2000/svg" viewBox="0 0 129 108" width="129" height="108">
	<title>Path 360</title>
	<defs>
		<clipPath clipPathUnits="userSpaceOnUse" id="cp1">
			<path d="m-635-7351h3840v8555h-3840z"/>
		</clipPath>
	</defs>
	<style>
		.s0 { fill: none;stroke: #0030ff;stroke-width: 3.3 } 
	</style>
	<g id="Clip-Path" clip-path="url(#cp1)">
		<g>
			<path fill-rule="evenodd" class="s0" d="m71.8-772.5l-6.3-4.5-5 3.8c-0.3 0.3-0.8 0.3-1.1 0.1l-7.5-5.2-0.7-0.5 18.5-12.5 8.7 6.7m1.7 18.1v11.7c2.8 0 5 2.2 5 4.9h51.6c0-2.7 2.2-4.9 5-4.9v-16.6c-2.8 0-5-2.2-5-4.9h-47.6l-10.7-8.3h71.6v44.7h-78.2v-17.1h0.1v-0.1h0.5l-0.6-0.1v-15.3zm-8.3 9.5h-17.1l-4.2-3.8 21.4 3.7h-0.1zm-38.4-6.8v3.3h-15.9v-49.5h15.9v4.2h41.9l27.5 21.2-69.4-21v41.7h-0.5zm0-41.9h-0.4l0.4 0.1zm0 41.9h13.8l3.3 3zm55.7-12.4l5.7 4.3c0.2 0.2 0.3 0.5 0.3 0.8 0.1 0.3-0.1 0.5-0.3 0.7l-8.5 7.5c-0.3 0.3-0.8 0.3-1.2 0l-4.9-3.5zm14.3 13.2c0-4.6 3.4-8.3 7.5-8.3 4.2 0 7.5 3.7 7.5 8.3 0 4.6-3.4 8.3-7.5 8.3-4.1 0-7.5-3.7-7.5-8.3zm347.2-44.8h139.1v68h-139.1zm124 47.5v-27.2c-4.6 0-8.4-3.8-8.4-8.6h-92.3v0.1c0 4.7-3.7 8.5-8.4 8.5v27.2c4.7 0 8.4 3.9 8.4 8.6h92.3c0-4.7 3.8-8.6 8.4-8.6zm-68.1-13.6c0-7.6 6.1-13.8 13.6-13.8 7.5 0 13.5 6.2 13.5 13.8 0 7.7-6.1 13.8-13.5 13.8-7.5 0-13.6-6.2-13.6-13.8zm-439.5 845l-24.8-6.8c6.7-4.2 15.4-5.1 22.9-2.5q2.7 0.9 5.7 2.4c0 0 5.4 2.2 11.5-0.4 1.6-0.6 3.6-0.7 5.2 0.1q0.5 0.3 1 0.7l-21.5 6.5 2.3 0.6h4.4c4.3 0 8.5-1.1 12.1-3.1l3.2-1.9c0.6-0.3 0.8-0.9 0.4-1.4q-0.4-0.3-0.7-0.7l13.4-4.9q0.8-0.3 1.5-0.5c4.4-1 6.6 0.5 7.6 1.5 0.4 0.5 0.2 1.1-0.4 1.4l-27 13.2c-4.1 1.9-8.8 2.8-13.4 2.5-17.8-0.8-28.2 0.9-28.2 0.9zm21.5-6.5l0.1-0.1q0 0.1 0.1 0.1h-0.1q0 0-0.1 0zm-56.2 18.3v5.8h-14.8v-31.4h14.8v3.8h9.9v21.8zm52.9-57.1c0-4 3.2-7.2 7.2-7.2 4 0 7.2 3.2 7.2 7.2 0 4.1-3.2 7.3-7.2 7.3-4 0-7.2-3.2-7.2-7.3zm-7.3 17c0-4 3.3-7.3 7.3-7.3 4 0 7.2 3.3 7.2 7.3 0 4-3.2 7.2-7.2 7.2-4 0-7.3-3.2-7.3-7.2zm-14.5-14.5c0-4 3.3-7.3 7.3-7.3 4 0 7.2 3.3 7.2 7.3 0 4-3.2 7.2-7.2 7.2-4 0-7.3-3.2-7.3-7.2z"/>
		</g>
	</g>
</svg>